# xmcd
# 
# Track frame offsets:
#     182
#     19847
#     33117
#     53555
#     70152
#     87775
#     100920
#     118522
#     130160
#     144920
#     161090
# 
# Disc length: 2474
# 
# Revision: 0
# Processed by: cddbd v1.5.2PL0 Copyright (c) Steve Scherf et al.
# Submitted via: fre:ac v1.0.31
# 
DISCID=8509a80b
DTITLE=Tuna Universitaria de Distrito de Jaén - Tunerías
DYEAR=1996
DGENRE=Folklore
TTITLE0=Tunerías I
TTITLE1=¡Huch!
TTITLE2=Isa de León
TTITLE3=Luna de España
TTITLE4=Flor marchita
TTITLE5=Mujer de Jaén
TTITLE6=Tunerías II
TTITLE7=La viajerita
TTITLE8=Mía
TTITLE9=Lamento borincano
TTITLE10=Tuna de Jaén
EXTD=
EXTT0=
EXTT1=
EXTT2=
EXTT3=
EXTT4=
EXTT5=
EXTT6=
EXTT7=
EXTT8=
EXTT9=
EXTT10=
PLAYORDER=
